<svg width="75" height="74" viewBox="0 0 75 74" fill="none" xmlns="http://www.w3.org/2000/svg">
<path d="M55.2658 0.578125C51.3352 0.578125 48.1408 3.68844 48.1408 7.51562C48.1408 11.3428 51.3352 14.4531 55.2658 14.4531C59.1965 14.4531 62.3908 11.3428 62.3908 7.51562C62.3908 3.68844 59.1965 0.578125 55.2658 0.578125ZM55.2658 4.04688C57.2312 4.04688 58.8283 5.60203 58.8283 7.51562C58.8283 9.42922 57.2312 10.9844 55.2658 10.9844C53.3005 10.9844 51.7033 9.42922 51.7033 7.51562C51.7033 5.60203 53.3005 4.04688 55.2658 4.04688ZM25.5783 9.25C21.6477 9.25 18.4533 12.3603 18.4533 16.1875C18.4533 20.0147 21.6477 23.125 25.5783 23.125C29.509 23.125 32.7033 20.0147 32.7033 16.1875C32.7033 12.3603 29.509 9.25 25.5783 9.25ZM25.5783 12.7188C27.5437 12.7188 29.1408 14.2739 29.1408 16.1875C29.1408 18.1011 27.5437 19.6562 25.5783 19.6562C23.613 19.6562 22.0158 18.1011 22.0158 16.1875C22.0158 14.2739 23.613 12.7188 25.5783 12.7188ZM44.5783 23.7031C40.6477 23.7031 37.4533 26.8134 37.4533 30.6406C37.4533 34.4678 40.6477 37.5781 44.5783 37.5781C48.509 37.5781 51.7033 34.4678 51.7033 30.6406C51.7033 26.8134 48.509 23.7031 44.5783 23.7031ZM44.5783 27.1719C46.5437 27.1719 48.1408 28.727 48.1408 30.6406C48.1408 32.5542 46.5437 34.1094 44.5783 34.1094C42.613 34.1094 41.0158 32.5542 41.0158 30.6406C41.0158 28.727 42.613 27.1719 44.5783 27.1719ZM20.6289 39.8037C16.3007 39.7367 11.9928 41.0667 8.43033 43.7117C7.61689 44.3129 7.48673 45.4643 8.16361 46.2274C8.78111 46.9269 9.89123 46.9903 10.6453 46.4295C15.3003 43.0013 21.4988 42.307 26.8366 44.6195L42.2033 51.286C42.7377 51.5173 43.1828 51.8924 43.4975 52.3723C44.0319 53.1932 44.1148 54.2111 43.7051 55.1014C43.3489 55.8819 42.6547 56.4768 41.7522 56.7138C41.0694 56.8931 40.3443 56.7949 39.7031 56.5174L29.5444 52.0945C28.6478 51.7014 27.5916 52.0943 27.1938 52.9673C26.7959 53.8403 27.1936 54.8699 28.0902 55.2572L38.3382 59.7208C39.205 60.0965 40.1133 60.2808 41.0158 60.2808C42.8446 60.2808 44.6321 59.5291 45.9027 58.1185C46.3361 57.6387 46.6918 57.0958 46.9649 56.5061C48.0812 54.0606 47.5292 51.1584 45.4214 49.2332C44.887 48.7476 44.2576 48.3717 43.5926 48.0826L28.2862 41.4511C25.8303 40.3866 23.2258 39.8439 20.6289 39.8037ZM57.9458 42.9292C57.0975 42.9371 56.2479 43.1083 55.4375 43.4407L51.1873 45.2439C50.2848 45.6255 49.8746 46.6494 50.2665 47.5282C50.6584 48.4069 51.7089 48.8052 52.6114 48.4236L56.8453 46.626C57.5756 46.3254 58.3833 46.3189 59.1136 46.6079C59.8499 46.897 60.4259 47.4466 60.7406 48.1808L61.0132 48.7827L53.1877 52.0256C52.2852 52.4014 51.8636 53.4186 52.2495 54.3031C52.6355 55.1876 53.6862 55.5924 54.5828 55.2166L66.7547 50.1693C68.3162 49.5218 70.1276 50.1409 70.7926 51.5457C71.1311 52.2626 71.1543 53.0664 70.8634 53.8006C70.5724 54.5348 69.9971 55.1066 69.2549 55.4131L35.7973 69.2011C33.1076 70.3053 30.0611 70.2248 27.4605 68.9933L10.9422 60.894C10.3484 60.6049 9.64195 60.6571 9.10758 61.0328L0.795076 66.8141C-0.00648607 67.3633 -0.190085 68.4501 0.379915 69.2248C0.949915 70.0053 2.06584 70.1841 2.8674 69.6291L10.3067 64.4553L25.8868 72.0917C27.7749 72.9878 29.8234 73.4388 31.8719 73.4388C33.6769 73.4388 35.4885 73.0929 37.1866 72.3876L70.6442 58.6108C72.2829 57.9344 73.541 56.6739 74.1881 55.0551C74.8294 53.4364 74.7761 51.6787 74.0339 50.1004C72.5733 47.0074 68.6904 45.608 65.3654 46.9839L64.2973 47.4232L64.0121 46.8055C63.3292 45.2446 62.0646 44.0303 60.4496 43.3944C59.6421 43.0764 58.7942 42.9212 57.9458 42.9292Z" fill="white"/>
</svg>
