<svg width="79" height="79" viewBox="0 0 79 79" fill="none" xmlns="http://www.w3.org/2000/svg">
<path d="M39.2437 0.44043C38.3915 0.44043 37.5391 0.63479 36.7624 1.02313L3.47649 17.6661C1.58412 18.6092 0.406494 20.5144 0.406494 22.6286V25.8889C0.406494 28.9462 2.89678 31.4365 5.95415 31.4365H72.526C75.5834 31.4365 78.0737 28.9462 78.0737 25.8889V22.6286C78.0737 20.5144 76.8959 18.6092 75.0097 17.6661L41.7238 1.02313C40.9471 0.63479 40.0959 0.44043 39.2437 0.44043ZM39.2401 4.13646C39.5236 4.13646 39.8071 4.20325 40.066 4.3327L73.3519 20.9757C73.9807 21.29 74.3752 21.9259 74.3752 22.6286V25.8889C74.3752 26.9059 73.5431 27.7381 72.526 27.7381H5.95415C4.93708 27.7381 4.10493 26.9059 4.10493 25.8889V22.6286C4.10493 21.9259 4.49953 21.29 5.12826 20.9757L38.4142 4.3327C38.6731 4.20325 38.9565 4.13646 39.2401 4.13646ZM13.9674 36.3678C10.2258 36.3678 7.18696 39.4066 7.18696 43.1482V62.8732C7.18696 66.6148 10.2258 69.6537 13.9674 69.6537C17.709 69.6537 20.7479 66.6148 20.7479 62.8732V43.1482C20.7479 39.4066 17.709 36.3678 13.9674 36.3678ZM39.2401 36.3678C35.4985 36.3678 32.4596 39.4066 32.4596 43.1482V45.6139C32.4596 46.6371 33.2856 47.4631 34.3088 47.4631C35.3321 47.4631 36.1581 46.6371 36.1581 45.6139V43.1482C36.1581 41.4469 37.5388 40.0662 39.2401 40.0662C40.2633 40.0662 41.0893 39.2402 41.0893 38.217C41.0893 37.1937 40.2633 36.3678 39.2401 36.3678ZM57.7323 37.6006C46.5137 37.6006 37.3909 46.7234 37.3909 57.942C37.3909 69.1606 46.5137 78.2834 57.7323 78.2834C68.9509 78.2834 78.0737 69.1606 78.0737 57.942C78.0737 46.7234 68.9509 37.6006 57.7323 37.6006ZM13.9674 40.0662C15.6687 40.0662 17.0495 41.4469 17.0495 43.1482V62.8732C17.0495 64.5745 15.6687 65.9553 13.9674 65.9553C12.2662 65.9553 10.8854 64.5745 10.8854 62.8732V43.1482C10.8854 41.4469 12.2662 40.0662 13.9674 40.0662ZM57.7323 41.299C66.9106 41.299 74.3752 48.7637 74.3752 57.942C74.3752 67.1203 66.9106 74.5849 57.7323 74.5849C48.554 74.5849 41.0893 67.1203 41.0893 57.942C41.0893 48.7637 48.554 41.299 57.7323 41.299ZM57.7323 49.9287C56.709 49.9287 55.8831 50.7547 55.8831 51.7779V64.106C55.8831 65.1293 56.709 65.9553 57.7323 65.9553C58.7555 65.9553 59.5815 65.1293 59.5815 64.106V51.7779C59.5815 50.7547 58.7555 49.9287 57.7323 49.9287ZM32.096 52.1812C31.7394 52.1885 31.3811 52.2975 31.0667 52.5171C27.3066 55.1738 25.0627 59.5076 25.0627 64.106C25.0627 71.9221 31.4241 78.2834 39.2401 78.2834C39.3942 78.2834 39.5424 78.2835 39.6904 78.2774C40.7136 78.2465 41.509 77.39 41.4782 76.3667C41.4474 75.3435 40.5834 74.5358 39.5663 74.5789C39.4616 74.5851 39.351 74.5849 39.2401 74.5849C33.4644 74.5849 28.7612 69.8818 28.7612 64.106C28.7612 60.7035 30.4199 57.5041 33.2061 55.5378C34.0382 54.946 34.2408 53.7935 33.6491 52.9614C33.2792 52.4413 32.6904 52.1692 32.096 52.1812ZM2.25571 74.5849C1.23248 74.5849 0.406494 75.4109 0.406494 76.4342C0.406494 77.4574 1.23248 78.2834 2.25571 78.2834H20.7479C21.7711 78.2834 22.5971 77.4574 22.5971 76.4342C22.5971 75.4109 21.7711 74.5849 20.7479 74.5849H2.25571Z" fill="white"/>
</svg>
