<svg width="72" height="78" viewBox="0 0 72 78" fill="none" xmlns="http://www.w3.org/2000/svg">
<path d="M35.7933 0.739258C33.6359 0.739258 31.6639 1.54107 30.1229 3.08208L0.596758 32.6082C-0.14293 33.3479 -0.14293 34.5186 0.596758 35.1966C1.2748 35.9363 2.50714 35.9363 3.18518 35.1966L32.7113 5.67051C33.5126 4.86918 34.6221 4.4377 35.7933 4.4377C36.9645 4.4377 38.0124 4.86918 38.8753 5.67051L68.4015 35.1966C68.7713 35.5665 69.2642 35.7516 69.6957 35.7516C70.1271 35.7516 70.62 35.5665 70.9899 35.1966C71.7296 34.4569 71.7296 33.2862 70.9899 32.6082L41.4638 3.08208C39.9228 1.54107 37.9507 0.739258 35.7933 0.739258ZM35.7704 8.56834C35.3004 8.56834 34.8381 8.7535 34.4991 9.12335L8.61004 35.0124C8.2402 35.3823 8.05503 35.8749 8.05503 36.368V64.7227C8.05503 69.1608 11.6302 72.736 16.0683 72.736H35.7933C36.8412 72.736 37.6425 71.9347 37.6425 70.8868C37.6425 69.8389 36.8412 69.0376 35.7933 69.0376H16.0683C13.6643 69.0376 11.7535 67.1267 11.7535 64.7227V37.1072L35.7933 13.0674L60.3882 37.6622C61.1279 38.4019 62.2985 38.4019 62.9766 37.6622C63.7163 36.9225 63.7163 35.7519 62.9766 35.0738L37.0875 9.12335C36.7177 8.7535 36.2405 8.56834 35.7704 8.56834ZM59.2168 44.0731C54.4704 44.0731 50.5871 47.9565 50.5871 52.7028V58.2504H49.9707C48.2447 58.2504 46.8886 59.6065 46.8886 61.3325V65.6473C46.8886 72.4278 52.4363 77.9754 59.2168 77.9754C65.9972 77.9754 71.5449 72.4278 71.5449 65.6473V61.3325C71.5449 59.6065 70.1888 58.2504 68.4628 58.2504H67.785C67.785 58.1272 67.8464 58.0655 67.8464 57.9422V52.7028C67.8464 47.9565 63.9631 44.0731 59.2168 44.0731ZM59.2168 47.7715C61.9289 47.7715 64.148 49.9906 64.148 52.7028V57.9422C64.148 58.0655 64.1478 58.1272 64.2094 58.2504H54.2855V52.7028C54.2855 49.9906 56.5046 47.7715 59.2168 47.7715ZM59.2168 63.6127C60.2646 63.6127 61.066 64.414 61.066 65.4619V68.4212C61.066 69.469 60.2646 70.2704 59.2168 70.2704C58.1689 70.2704 57.3675 69.469 57.3675 68.4212V65.4619C57.3675 64.414 58.1689 63.6127 59.2168 63.6127Z" fill="white"/>
</svg>
