<svg width="74" height="63" viewBox="0 0 74 63" fill="none" xmlns="http://www.w3.org/2000/svg">
<path d="M64.2357 0.931152C61.7835 0.931152 59.4317 1.90529 57.6977 3.63927C55.9638 5.37325 54.9896 7.72503 54.9896 10.1772C54.9896 12.6295 55.9638 14.9812 57.6977 16.7152C59.4317 18.4492 61.7835 19.4233 64.2357 19.4233C66.6879 19.4233 69.0397 18.4492 70.7737 16.7152C72.5077 14.9812 73.4818 12.6295 73.4818 10.1772C73.4818 7.72503 72.5077 5.37325 70.7737 3.63927C69.0397 1.90529 66.6879 0.931152 64.2357 0.931152ZM8.75916 8.26663C4.32104 8.32827 0.74588 11.9032 0.74588 16.3413V54.5585C0.74588 58.9966 4.32104 62.5718 8.75916 62.5718H58.0717C62.3249 62.5718 66.0849 59.1199 66.0849 55.1749V29.9636C66.0849 28.7925 64.9757 27.9293 63.8661 28.1758H63.8047C62.9418 28.3608 62.3865 29.1007 62.3865 29.9636V55.1749C62.3865 56.9008 60.4756 58.8733 58.0717 58.8733H8.75916C6.35518 58.8733 4.44432 56.9625 4.44432 54.5585V16.3413C4.44432 13.9373 6.35518 12.0265 8.75916 12.0265H44.5721C45.5584 12.0265 46.4213 11.2251 46.4213 10.1772V10.1158C46.4213 9.1296 45.62 8.26663 44.5721 8.26663H8.75916ZM11.0009 23.6383C10.5308 23.5997 10.0536 23.7382 9.68377 24.0464C8.88244 24.7244 8.82056 25.8951 9.43697 26.6348C9.99173 27.3129 22.6899 42.2304 33.4154 42.2304C42.0451 42.2304 51.9697 32.5523 55.7914 28.484C56.5928 27.6211 56.3455 26.265 55.3592 25.7102H55.2978C54.5581 25.2787 53.6338 25.402 53.079 26.0184C51.7846 27.3745 49.6888 29.4703 47.2232 31.5661C41.7988 36.1275 37.0522 38.5319 33.4154 38.5319C29.7786 38.5319 25.032 36.1275 19.6077 31.5661C15.3545 27.9909 12.2722 24.3548 12.2722 24.2932C11.9332 23.8925 11.4709 23.6768 11.0009 23.6383Z" fill="white"/>
</svg>
