<svg width="198" height="57" viewBox="0 0 198 57" fill="none" xmlns="http://www.w3.org/2000/svg">
<g clip-path="url(#clip0_783_64)">
<path d="M0.314903 29.2947L5.30992 25.37V23.1802C5.28258 20.8461 5.71999 18.5298 6.5968 16.3655C7.47361 14.2012 8.77238 12.2319 10.4179 10.5717C12.0634 8.91156 14.0229 7.5935 16.1829 6.69392C18.3429 5.79435 20.6604 5.33114 23.0012 5.33114C25.342 5.33114 27.6595 5.79435 29.8195 6.69392C31.9795 7.5935 33.939 8.91156 35.5845 10.5717C37.23 12.2319 38.5288 14.2012 39.4056 16.3655C40.2824 18.5298 40.7198 20.8461 40.6925 23.1802V25.37L45.6875 29.2947C45.7961 29.3789 45.8999 29.4679 46.0012 29.557V23.1802C46.0323 20.1485 45.4604 17.1407 44.3185 14.3308C43.1766 11.5208 41.4874 8.96454 39.3486 6.80972C37.2098 4.6549 34.6637 2.94431 31.8578 1.77689C29.0518 0.609466 26.0416 0.00837326 23.0012 0.00837326C19.9608 0.00837326 16.9506 0.609466 14.1446 1.77689C11.3387 2.94431 8.79266 4.6549 6.65382 6.80972C4.51498 8.96454 2.82577 11.5208 1.68387 14.3308C0.54198 17.1407 -0.0299343 20.1485 0.00120662 23.1802V29.557C0.102555 29.4679 0.206316 29.3789 0.314903 29.2947Z" fill="white"/>
<path d="M23.0013 40.7038C21.2116 40.7038 19.4621 40.1745 17.974 39.183C16.4859 38.1915 15.3261 36.7822 14.6412 35.1333C13.9563 33.4845 13.7771 31.6701 14.1263 29.9197C14.4754 28.1693 15.3373 26.5614 16.6028 25.2994C17.8683 24.0374 19.4807 23.178 21.236 22.8298C22.9913 22.4817 24.8107 22.6604 26.4642 23.3433C28.1177 24.0263 29.5309 25.1829 30.5253 26.6668C31.5196 28.1508 32.0503 29.8954 32.0503 31.6801C32.0477 34.0726 31.0935 36.3663 29.3971 38.058C27.7006 39.7497 25.4005 40.7012 23.0013 40.7038ZM23.0013 27.9503C22.2616 27.9503 21.5385 28.1691 20.9234 28.5789C20.3083 28.9888 19.8289 29.5713 19.5458 30.2528C19.2627 30.9343 19.1887 31.6843 19.333 32.4078C19.4773 33.1313 19.8335 33.7959 20.3566 34.3175C20.8797 34.8391 21.5461 35.1943 22.2717 35.3382C22.9972 35.4821 23.7492 35.4083 24.4327 35.126C25.1161 34.8437 25.7002 34.3656 26.1112 33.7523C26.5222 33.1389 26.7416 32.4178 26.7416 31.6801C26.7409 30.6911 26.3467 29.7428 25.6454 29.0435C24.9441 28.3441 23.9931 27.951 23.0013 27.9503Z" fill="white"/>
<path d="M23.1291 48.3747C14.319 48.3747 9.45191 41.2183 9.24438 40.9152L13.6699 37.9891C13.8099 38.2008 17.1471 43.0977 23.1291 43.0977H23.4524C29.2438 42.9268 32.4338 38.1984 32.5689 37.9963L36.9969 40.9152C36.5143 41.6539 31.9657 48.1341 23.6093 48.3747H23.1291Z" fill="white"/>
<path d="M23.1339 56.0298C10.0093 56.0298 2.90048 45.2014 2.59644 44.7394L7.06541 41.8783C7.12573 41.9722 13.1632 51.1282 23.853 50.7215C33.4738 50.3533 38.6161 42.7494 39.1711 41.8831L43.6449 44.7322C42.9378 45.8367 36.3767 55.5413 24.0557 56.0106C23.7444 56.025 23.438 56.0298 23.1339 56.0298Z" fill="white"/>
</g>
<path d="M63.5773 40V15.1333H68.9784V26.4429L79.5631 15.1333H86.2329L76.7357 25.2467L86.4141 40H79.9618L73.002 28.9803L68.9784 32.6052V40H63.5773ZM96.6207 40.435C94.5183 40.435 92.7542 40.0846 91.3284 39.3838C89.9026 38.6588 88.8272 37.5592 88.1023 36.0851C87.3773 34.611 87.0148 32.7381 87.0148 30.4665C87.0148 28.1708 87.3773 26.2979 88.1023 24.848C88.8272 23.3738 89.8905 22.2864 91.2922 21.5856C92.7179 20.8606 94.4579 20.4981 96.512 20.4981C98.4453 20.4981 100.076 20.8485 101.406 21.5493C102.735 22.226 103.738 23.2893 104.414 24.7392C105.091 26.165 105.429 28.0137 105.429 30.2853V31.5903H92.1259C92.1742 32.7019 92.3434 33.6444 92.6334 34.4177C92.9475 35.191 93.4188 35.771 94.0471 36.1576C94.6996 36.5201 95.5574 36.7014 96.6207 36.7014C97.2007 36.7014 97.7203 36.6289 98.1794 36.4839C98.6628 36.3389 99.0736 36.1214 99.4119 35.8314C99.7502 35.5414 100.016 35.1789 100.209 34.7439C100.403 34.3089 100.499 33.8135 100.499 33.2577H105.429C105.429 34.466 105.212 35.5172 104.777 36.4114C104.342 37.3055 103.738 38.0546 102.964 38.6588C102.191 39.2388 101.261 39.6858 100.173 40C99.1098 40.29 97.9257 40.435 96.6207 40.435ZM92.1984 28.4004H100.246C100.246 27.6754 100.149 27.0471 99.9556 26.5154C99.7865 25.9838 99.5448 25.5488 99.2307 25.2105C98.9165 24.8721 98.5299 24.6305 98.0707 24.4855C97.6357 24.3163 97.1403 24.2317 96.5845 24.2317C95.6662 24.2317 94.8929 24.3888 94.2646 24.703C93.6604 24.993 93.1892 25.4521 92.8509 26.0804C92.5367 26.6846 92.3192 27.4579 92.1984 28.4004ZM111.881 46.8148C110.987 46.8148 110.238 46.7423 109.634 46.5973C109.054 46.4765 108.679 46.3919 108.51 46.3436V42.9362H110.721C111.325 42.9362 111.869 42.7912 112.352 42.5012C112.836 42.2353 113.258 41.8729 113.621 41.4137C113.983 40.9787 114.249 40.5075 114.418 40L106.951 20.9331H112.28L115.542 29.7416C115.687 30.1524 115.844 30.672 116.013 31.3003C116.207 31.9044 116.4 32.5448 116.593 33.2215C116.787 33.8739 116.944 34.4539 117.065 34.9614H117.246C117.342 34.6231 117.451 34.2243 117.572 33.7652C117.693 33.306 117.814 32.8348 117.935 32.3515C118.08 31.8682 118.212 31.409 118.333 30.974C118.478 30.5149 118.599 30.1161 118.696 29.7778L121.414 20.9331H126.489L120.001 39.0938C119.638 40.1571 119.215 41.1479 118.732 42.0662C118.273 43.0087 117.729 43.8303 117.101 44.5311C116.472 45.2561 115.723 45.8119 114.853 46.1986C114.008 46.6094 113.017 46.8148 111.881 46.8148ZM128.95 40V13.7921H133.988V40H128.95ZM147.277 40.435C145.175 40.435 143.411 40.0846 141.985 39.3838C140.559 38.6588 139.484 37.5592 138.759 36.0851C138.034 34.611 137.671 32.7381 137.671 30.4665C137.671 28.1708 138.034 26.2979 138.759 24.848C139.484 23.3738 140.547 22.2864 141.949 21.5856C143.374 20.8606 145.114 20.4981 147.168 20.4981C149.102 20.4981 150.733 20.8485 152.062 21.5493C153.391 22.226 154.394 23.2893 155.071 24.7392C155.747 26.165 156.086 28.0137 156.086 30.2853V31.5903H142.782C142.831 32.7019 143 33.6444 143.29 34.4177C143.604 35.191 144.075 35.771 144.703 36.1576C145.356 36.5201 146.214 36.7014 147.277 36.7014C147.857 36.7014 148.377 36.6289 148.836 36.4839C149.319 36.3389 149.73 36.1214 150.068 35.8314C150.407 35.5414 150.672 35.1789 150.866 34.7439C151.059 34.3089 151.156 33.8135 151.156 33.2577H156.086C156.086 34.466 155.868 35.5172 155.433 36.4114C154.998 37.3055 154.394 38.0546 153.621 38.6588C152.847 39.2388 151.917 39.6858 150.83 40C149.766 40.29 148.582 40.435 147.277 40.435ZM142.855 28.4004H150.902C150.902 27.6754 150.805 27.0471 150.612 26.5154C150.443 25.9838 150.201 25.5488 149.887 25.2105C149.573 24.8721 149.186 24.6305 148.727 24.4855C148.292 24.3163 147.797 24.2317 147.241 24.2317C146.323 24.2317 145.549 24.3888 144.921 24.703C144.317 24.993 143.846 25.4521 143.507 26.0804C143.193 26.6846 142.976 27.4579 142.855 28.4004ZM167.503 40.435C166.174 40.435 164.978 40.29 163.915 40C162.852 39.71 161.945 39.3113 161.196 38.8038C160.447 38.2721 159.867 37.6438 159.456 36.9188C159.07 36.1939 158.876 35.3722 158.876 34.4539C158.876 34.3573 158.876 34.2606 158.876 34.1639C158.876 34.0673 158.888 33.9948 158.912 33.9464H163.77C163.77 33.9948 163.77 34.0431 163.77 34.0914C163.77 34.1398 163.77 34.1881 163.77 34.2364C163.794 34.8406 163.987 35.336 164.35 35.7226C164.712 36.0851 165.184 36.3509 165.764 36.5201C166.368 36.6893 166.996 36.7738 167.648 36.7738C168.228 36.7738 168.784 36.7255 169.316 36.6289C169.872 36.508 170.331 36.3026 170.693 36.0126C171.08 35.7226 171.273 35.3481 171.273 34.8889C171.273 34.3089 171.032 33.8619 170.548 33.5477C170.089 33.2335 169.473 32.9798 168.7 32.7865C167.951 32.5931 167.129 32.3757 166.235 32.134C165.413 31.9407 164.591 31.7232 163.77 31.4815C162.948 31.2157 162.199 30.8774 161.522 30.4665C160.87 30.0557 160.338 29.5241 159.927 28.8716C159.517 28.1949 159.311 27.3491 159.311 26.3342C159.311 25.3434 159.529 24.4855 159.964 23.7605C160.399 23.0114 160.991 22.3951 161.74 21.9118C162.513 21.4285 163.407 21.0781 164.422 20.8606C165.461 20.6189 166.573 20.4981 167.757 20.4981C168.869 20.4981 169.908 20.6189 170.875 20.8606C171.841 21.0781 172.687 21.4164 173.412 21.8756C174.137 22.3105 174.705 22.8664 175.116 23.543C175.527 24.1955 175.732 24.9325 175.732 25.7542C175.732 25.9233 175.732 26.0804 175.732 26.2254C175.732 26.3704 175.72 26.4671 175.696 26.5154H170.875V26.2254C170.875 25.7904 170.742 25.4279 170.476 25.138C170.21 24.8238 169.823 24.5821 169.316 24.413C168.833 24.2438 168.241 24.1592 167.54 24.1592C167.056 24.1592 166.609 24.1955 166.198 24.268C165.812 24.3405 165.474 24.4492 165.184 24.5942C164.894 24.7392 164.664 24.9205 164.495 25.138C164.35 25.3313 164.277 25.5729 164.277 25.8629C164.277 26.2738 164.446 26.6121 164.785 26.8779C165.147 27.1196 165.619 27.325 166.198 27.4941C166.778 27.6633 167.419 27.8445 168.12 28.0379C168.99 28.2795 169.896 28.5212 170.838 28.7628C171.805 28.9803 172.699 29.2824 173.521 29.6691C174.342 30.0557 175.007 30.6115 175.514 31.3365C176.022 32.0373 176.276 32.9919 176.276 34.2002C176.276 35.3601 176.046 36.3389 175.587 37.1363C175.152 37.9338 174.536 38.5742 173.738 39.0575C172.941 39.5408 172.01 39.8913 170.947 40.1087C169.884 40.3262 168.736 40.435 167.503 40.435ZM187.646 40.435C186.317 40.435 185.12 40.29 184.057 40C182.994 39.71 182.088 39.3113 181.338 38.8038C180.589 38.2721 180.009 37.6438 179.598 36.9188C179.212 36.1939 179.018 35.3722 179.018 34.4539C179.018 34.3573 179.018 34.2606 179.018 34.1639C179.018 34.0673 179.031 33.9948 179.055 33.9464H183.912C183.912 33.9948 183.912 34.0431 183.912 34.0914C183.912 34.1398 183.912 34.1881 183.912 34.2364C183.936 34.8406 184.13 35.336 184.492 35.7226C184.854 36.0851 185.326 36.3509 185.906 36.5201C186.51 36.6893 187.138 36.7738 187.791 36.7738C188.371 36.7738 188.926 36.7255 189.458 36.6289C190.014 36.508 190.473 36.3026 190.836 36.0126C191.222 35.7226 191.416 35.3481 191.416 34.8889C191.416 34.3089 191.174 33.8619 190.691 33.5477C190.231 33.2335 189.615 32.9798 188.842 32.7865C188.093 32.5931 187.271 32.3757 186.377 32.134C185.555 31.9407 184.734 31.7232 183.912 31.4815C183.09 31.2157 182.341 30.8774 181.665 30.4665C181.012 30.0557 180.48 29.5241 180.07 28.8716C179.659 28.1949 179.453 27.3491 179.453 26.3342C179.453 25.3434 179.671 24.4855 180.106 23.7605C180.541 23.0114 181.133 22.3951 181.882 21.9118C182.655 21.4285 183.55 21.0781 184.565 20.8606C185.604 20.6189 186.715 20.4981 187.899 20.4981C189.011 20.4981 190.05 20.6189 191.017 20.8606C191.983 21.0781 192.829 21.4164 193.554 21.8756C194.279 22.3105 194.847 22.8664 195.258 23.543C195.669 24.1955 195.874 24.9325 195.874 25.7542C195.874 25.9233 195.874 26.0804 195.874 26.2254C195.874 26.3704 195.862 26.4671 195.838 26.5154H191.017V26.2254C191.017 25.7904 190.884 25.4279 190.618 25.138C190.352 24.8238 189.966 24.5821 189.458 24.413C188.975 24.2438 188.383 24.1592 187.682 24.1592C187.199 24.1592 186.752 24.1955 186.341 24.268C185.954 24.3405 185.616 24.4492 185.326 24.5942C185.036 24.7392 184.806 24.9205 184.637 25.138C184.492 25.3313 184.42 25.5729 184.42 25.8629C184.42 26.2738 184.589 26.6121 184.927 26.8779C185.289 27.1196 185.761 27.325 186.341 27.4941C186.921 27.6633 187.561 27.8445 188.262 28.0379C189.132 28.2795 190.038 28.5212 190.981 28.7628C191.947 28.9803 192.841 29.2824 193.663 29.6691C194.485 30.0557 195.149 30.6115 195.657 31.3365C196.164 32.0373 196.418 32.9919 196.418 34.2002C196.418 35.3601 196.188 36.3389 195.729 37.1363C195.294 37.9338 194.678 38.5742 193.88 39.0575C193.083 39.5408 192.153 39.8913 191.089 40.1087C190.026 40.3262 188.878 40.435 187.646 40.435Z" fill="white"/>
<defs>
<clipPath id="clip0_783_64">
<rect width="46" height="56.0213" fill="white" transform="translate(0 0.00835991)"/>
</clipPath>
</defs>
</svg>
