<svg width="212" height="58" viewBox="0 0 212 58" fill="none" xmlns="http://www.w3.org/2000/svg">
<g clip-path="url(#clip0_740_201)">
<path d="M0.314903 30.1468L5.30992 26.1212V23.8751C5.28258 21.481 5.71999 19.1051 6.5968 16.8852C7.47361 14.6652 8.77238 12.6453 10.4179 10.9424C12.0634 9.23954 14.0229 7.88759 16.1829 6.96488C18.3429 6.04217 20.6604 5.56706 23.0012 5.56706C25.342 5.56706 27.6595 6.04217 29.8195 6.96488C31.9795 7.88759 33.939 9.23954 35.5845 10.9424C37.23 12.6453 38.5288 14.6652 39.4056 16.8852C40.2824 19.1051 40.7198 21.481 40.6925 23.8751V26.1212L45.6875 30.1468C45.7961 30.2332 45.8999 30.3245 46.0012 30.4158V23.8751C46.0323 20.7654 45.4604 17.6803 44.3185 14.7981C43.1766 11.9159 41.4874 9.29389 39.3486 7.08366C37.2098 4.87343 34.6637 3.11886 31.8578 1.92141C29.0518 0.723971 26.0416 0.107422 23.0012 0.107422C19.9608 0.107422 16.9506 0.723971 14.1446 1.92141C11.3387 3.11886 8.79265 4.87343 6.65382 7.08366C4.51498 9.29389 2.82577 11.9159 1.68387 14.7981C0.54198 17.6803 -0.0299343 20.7654 0.00120662 23.8751V30.4158C0.102555 30.3245 0.206316 30.2332 0.314903 30.1468Z" fill="#CDBC7A"/>
<path d="M23.0013 41.8493C21.2116 41.8493 19.4621 41.3064 17.974 40.2894C16.4859 39.2724 15.3261 37.8268 14.6412 36.1356C13.9563 34.4443 13.7771 32.5833 14.1263 30.7879C14.4754 28.9925 15.3373 27.3433 16.6028 26.0488C17.8683 24.7544 19.4807 23.8729 21.236 23.5157C22.9913 23.1586 24.8107 23.3419 26.4642 24.0424C28.1177 24.743 29.5309 25.9293 30.5253 27.4514C31.5196 28.9735 32.0503 30.763 32.0503 32.5936C32.0477 35.0475 31.0935 37.4002 29.3971 39.1355C27.7006 40.8707 25.4005 41.8467 23.0013 41.8493ZM23.0013 28.7679C22.2616 28.7679 21.5385 28.9923 20.9234 29.4126C20.3083 29.833 19.8289 30.4305 19.5458 31.1296C19.2627 31.8286 19.1887 32.5978 19.333 33.3399C19.4773 34.0821 19.8335 34.7637 20.3566 35.2988C20.8797 35.8338 21.5461 36.1981 22.2717 36.3458C22.9972 36.4934 23.7492 36.4176 24.4327 36.1281C25.1161 35.8385 25.7002 35.3482 26.1112 34.719C26.5222 34.0899 26.7416 33.3502 26.7416 32.5936C26.7409 31.5791 26.3467 30.6065 25.6454 29.8891C24.9441 29.1718 23.9931 28.7686 23.0013 28.7679Z" fill="#001C55"/>
<path d="M23.1291 49.7176C14.319 49.7176 9.45191 42.3772 9.24438 42.0663L13.6699 39.0649C13.8099 39.2821 17.1471 44.3049 23.1291 44.3049H23.4524C29.2438 44.1297 32.4338 39.2797 32.5689 39.0723L36.9969 42.0663C36.5143 42.824 31.9657 49.4708 23.6093 49.7176H23.1291Z" fill="#001C55"/>
<path d="M23.1339 57.5696C10.0093 57.5696 2.90048 46.4628 2.59644 45.9889L7.06541 43.0542C7.12573 43.1505 13.1632 52.5419 23.853 52.1248C33.4738 51.7471 38.6161 43.9477 39.1711 43.0591L43.6449 45.9815C42.9378 47.1144 36.3767 57.0685 24.0557 57.5498C23.7444 57.5647 23.438 57.5696 23.1339 57.5696Z" fill="#001C55"/>
</g>
<path d="M69.718 40.5547V15.6517H76.2065V26.7076L86.0662 15.6517H94.1135L84.8337 25.8376L94.2947 40.5547H86.6099L80.3389 30.26L76.2065 34.0661V40.5547H69.718ZM105.042 40.9897C102.867 40.9897 101.019 40.6393 99.4961 39.9385C97.9737 39.2135 96.8016 38.1139 95.98 36.6398C95.1825 35.1657 94.7838 33.2807 94.7838 30.985C94.7838 28.7376 95.1825 26.8768 95.98 25.4027C96.7775 23.9285 97.9253 22.829 99.4236 22.104C100.922 21.379 102.722 21.0165 104.825 21.0165C106.903 21.0165 108.655 21.3669 110.081 22.0678C111.531 22.7686 112.63 23.8439 113.379 25.2939C114.129 26.7439 114.503 28.6167 114.503 30.9125V32.1812H100.801C100.801 33.1962 100.946 34.0541 101.236 34.7549C101.526 35.4557 101.973 35.9873 102.577 36.3498C103.181 36.7123 103.991 36.8935 105.006 36.8935C105.61 36.8935 106.142 36.8211 106.601 36.6761C107.06 36.5311 107.447 36.3257 107.761 36.0598C108.075 35.7698 108.317 35.4315 108.486 35.0449C108.655 34.6582 108.74 34.2232 108.74 33.7399H114.503C114.503 34.8999 114.286 35.939 113.851 36.8573C113.44 37.7514 112.824 38.5127 112.002 39.141C111.18 39.7451 110.177 40.2043 108.993 40.5184C107.833 40.8326 106.516 40.9897 105.042 40.9897ZM100.837 28.8825H108.45C108.45 28.2542 108.365 27.7105 108.196 27.2513C108.051 26.768 107.821 26.3693 107.507 26.0551C107.217 25.741 106.855 25.5114 106.42 25.3664C106.009 25.1972 105.526 25.1127 104.97 25.1127C104.1 25.1127 103.375 25.2577 102.795 25.5476C102.215 25.8376 101.768 26.2605 101.454 26.8164C101.139 27.3722 100.934 28.0609 100.837 28.8825ZM121.178 47.6957C120.308 47.6957 119.547 47.6232 118.894 47.4782C118.242 47.3574 117.783 47.2486 117.517 47.152V43.3821H120.018C120.695 43.3821 121.275 43.225 121.758 42.9109C122.241 42.6209 122.616 42.2584 122.882 41.8234C123.172 41.4126 123.377 40.9897 123.498 40.5547L115.958 21.4515H122.302L125.129 29.825C125.274 30.2117 125.431 30.7192 125.6 31.3475C125.794 31.9516 125.975 32.5799 126.144 33.2324C126.337 33.8607 126.495 34.4286 126.615 34.9361H126.833C126.93 34.5978 127.038 34.2111 127.159 33.7761C127.28 33.317 127.401 32.8578 127.522 32.3987C127.642 31.9154 127.763 31.4562 127.884 31.0212C128.029 30.5862 128.15 30.1996 128.247 29.8613L130.675 21.4515H136.584L129.987 39.7935C129.576 40.9051 129.117 41.9442 128.609 42.9109C128.126 43.8775 127.546 44.7112 126.869 45.412C126.192 46.137 125.383 46.6928 124.44 47.0795C123.522 47.4903 122.435 47.6957 121.178 47.6957ZM138.948 40.5547V14.3105H144.893V40.5547H138.948ZM158.743 40.9897C156.568 40.9897 154.719 40.6393 153.197 39.9385C151.674 39.2135 150.502 38.1139 149.681 36.6398C148.883 35.1657 148.485 33.2807 148.485 30.985C148.485 28.7376 148.883 26.8768 149.681 25.4027C150.478 23.9285 151.626 22.829 153.124 22.104C154.623 21.379 156.423 21.0165 158.525 21.0165C160.604 21.0165 162.356 21.3669 163.782 22.0678C165.232 22.7686 166.331 23.8439 167.08 25.2939C167.829 26.7439 168.204 28.6167 168.204 30.9125V32.1812H154.502C154.502 33.1962 154.647 34.0541 154.937 34.7549C155.227 35.4557 155.674 35.9873 156.278 36.3498C156.882 36.7123 157.692 36.8935 158.707 36.8935C159.311 36.8935 159.843 36.8211 160.302 36.6761C160.761 36.5311 161.147 36.3257 161.462 36.0598C161.776 35.7698 162.017 35.4315 162.187 35.0449C162.356 34.6582 162.44 34.2232 162.44 33.7399H168.204C168.204 34.8999 167.986 35.939 167.551 36.8573C167.141 37.7514 166.524 38.5127 165.703 39.141C164.881 39.7451 163.878 40.2043 162.694 40.5184C161.534 40.8326 160.217 40.9897 158.743 40.9897ZM154.538 28.8825H162.15C162.15 28.2542 162.066 27.7105 161.897 27.2513C161.752 26.768 161.522 26.3693 161.208 26.0551C160.918 25.741 160.555 25.5114 160.12 25.3664C159.71 25.1972 159.226 25.1127 158.67 25.1127C157.8 25.1127 157.076 25.2577 156.496 25.5476C155.916 25.8376 155.468 26.2605 155.154 26.8164C154.84 27.3722 154.635 28.0609 154.538 28.8825ZM180.026 40.9897C178.77 40.9897 177.585 40.8568 176.474 40.5909C175.386 40.3251 174.42 39.9385 173.574 39.431C172.752 38.9235 172.1 38.2952 171.616 37.546C171.157 36.7969 170.928 35.9269 170.928 34.9361C170.928 34.8394 170.928 34.7549 170.928 34.6824C170.928 34.5857 170.94 34.5011 170.964 34.4286H176.583C176.583 34.477 176.583 34.5374 176.583 34.6099C176.583 34.6582 176.583 34.7065 176.583 34.7549C176.607 35.2865 176.776 35.7336 177.09 36.0961C177.428 36.4344 177.863 36.6881 178.395 36.8573C178.927 37.0023 179.507 37.0748 180.135 37.0748C180.594 37.0748 181.077 37.0265 181.585 36.9298C182.117 36.8331 182.564 36.664 182.926 36.4223C183.289 36.1807 183.47 35.8302 183.47 35.3711C183.47 34.8636 183.24 34.477 182.781 34.2111C182.346 33.9453 181.754 33.7278 181.005 33.5587C180.28 33.3653 179.495 33.1841 178.649 33.0149C177.803 32.8216 176.945 32.6041 176.075 32.3624C175.229 32.1208 174.444 31.7945 173.719 31.3837C173.018 30.9487 172.45 30.3929 172.015 29.7163C171.58 29.0396 171.363 28.1817 171.363 27.1426C171.363 26.031 171.592 25.0885 172.051 24.3152C172.535 23.5177 173.187 22.8773 174.009 22.394C174.83 21.9107 175.773 21.5603 176.836 21.3428C177.924 21.1253 179.072 21.0165 180.28 21.0165C181.392 21.0165 182.443 21.1253 183.434 21.3428C184.449 21.5603 185.355 21.8986 186.152 22.3577C186.974 22.7927 187.614 23.3606 188.073 24.0614C188.533 24.7381 188.762 25.5356 188.762 26.4539C188.762 26.5747 188.75 26.7076 188.726 26.8526C188.726 26.9734 188.726 27.058 188.726 27.1063H183.144V26.8164C183.144 26.4055 183.011 26.0672 182.745 25.8014C182.479 25.5356 182.117 25.3302 181.657 25.1852C181.198 25.016 180.691 24.9314 180.135 24.9314C179.772 24.9314 179.41 24.9677 179.047 25.0402C178.709 25.0885 178.395 25.1731 178.105 25.2939C177.815 25.3906 177.573 25.5356 177.38 25.7289C177.211 25.9222 177.126 26.1639 177.126 26.4539C177.126 26.8164 177.283 27.1184 177.597 27.3601C177.912 27.5776 178.335 27.7588 178.866 27.9038C179.422 28.0488 180.026 28.2059 180.679 28.3751C181.573 28.5684 182.515 28.7738 183.506 28.9913C184.497 29.1846 185.427 29.4746 186.297 29.8613C187.191 30.2238 187.904 30.7796 188.436 31.5287C188.992 32.2537 189.27 33.2566 189.27 34.5374C189.27 35.7457 189.028 36.7727 188.545 37.6185C188.061 38.4402 187.397 39.1047 186.551 39.6122C185.705 40.0955 184.726 40.4459 183.615 40.6634C182.503 40.8809 181.307 40.9897 180.026 40.9897ZM201.018 40.9897C199.761 40.9897 198.577 40.8568 197.466 40.5909C196.378 40.3251 195.411 39.9385 194.566 39.431C193.744 38.9235 193.092 38.2952 192.608 37.546C192.149 36.7969 191.919 35.9269 191.919 34.9361C191.919 34.8394 191.919 34.7549 191.919 34.6824C191.919 34.5857 191.932 34.5011 191.956 34.4286H197.574C197.574 34.477 197.574 34.5374 197.574 34.6099C197.574 34.6582 197.574 34.7065 197.574 34.7549C197.598 35.2865 197.768 35.7336 198.082 36.0961C198.42 36.4344 198.855 36.6881 199.387 36.8573C199.918 37.0023 200.498 37.0748 201.127 37.0748C201.586 37.0748 202.069 37.0265 202.577 36.9298C203.108 36.8331 203.555 36.664 203.918 36.4223C204.28 36.1807 204.462 35.8302 204.462 35.3711C204.462 34.8636 204.232 34.477 203.773 34.2111C203.338 33.9453 202.746 33.7278 201.997 33.5587C201.272 33.3653 200.486 33.1841 199.64 33.0149C198.795 32.8216 197.937 32.6041 197.067 32.3624C196.221 32.1208 195.436 31.7945 194.711 31.3837C194.01 30.9487 193.442 30.3929 193.007 29.7163C192.572 29.0396 192.354 28.1817 192.354 27.1426C192.354 26.031 192.584 25.0885 193.043 24.3152C193.526 23.5177 194.179 22.8773 195.001 22.394C195.822 21.9107 196.765 21.5603 197.828 21.3428C198.915 21.1253 200.063 21.0165 201.272 21.0165C202.383 21.0165 203.435 21.1253 204.425 21.3428C205.44 21.5603 206.347 21.8986 207.144 22.3577C207.966 22.7927 208.606 23.3606 209.065 24.0614C209.524 24.7381 209.754 25.5356 209.754 26.4539C209.754 26.5747 209.742 26.7076 209.718 26.8526C209.718 26.9734 209.718 27.058 209.718 27.1063H204.135V26.8164C204.135 26.4055 204.002 26.0672 203.737 25.8014C203.471 25.5356 203.108 25.3302 202.649 25.1852C202.19 25.016 201.682 24.9314 201.127 24.9314C200.764 24.9314 200.402 24.9677 200.039 25.0402C199.701 25.0885 199.387 25.1731 199.097 25.2939C198.807 25.3906 198.565 25.5356 198.372 25.7289C198.203 25.9222 198.118 26.1639 198.118 26.4539C198.118 26.8164 198.275 27.1184 198.589 27.3601C198.903 27.5776 199.326 27.7588 199.858 27.9038C200.414 28.0488 201.018 28.2059 201.67 28.3751C202.565 28.5684 203.507 28.7738 204.498 28.9913C205.489 29.1846 206.419 29.4746 207.289 29.8613C208.183 30.2238 208.896 30.7796 209.428 31.5287C209.983 32.2537 210.261 33.2566 210.261 34.5374C210.261 35.7457 210.02 36.7727 209.536 37.6185C209.053 38.4402 208.389 39.1047 207.543 39.6122C206.697 40.0955 205.718 40.4459 204.607 40.6634C203.495 40.8809 202.299 40.9897 201.018 40.9897Z" fill="#001C55"/>
<defs>
<clipPath id="clip0_740_201">
<rect width="46" height="57.4618" fill="white" transform="translate(0 0.107422)"/>
</clipPath>
</defs>
</svg>
